<?xml version="1.0" standalone="no"?>
<!DOCTYPE svg PUBLIC "-//W3C//DTD SVG 20010904//EN"
 "http://www.w3.org/TR/2001/REC-SVG-20010904/DTD/svg10.dtd">
<svg version="1.0" xmlns="http://www.w3.org/2000/svg"
 width="200.000000pt" height="200.000000pt" viewBox="0 0 200.000000 200.000000"
 preserveAspectRatio="xMidYMid meet">

<g transform="translate(0.000000,200.000000) scale(0.100000,-0.100000)"
fill="#000000" stroke="none">
<path d="M1027 1700 c4 -13 -8 -42 -30 -78 -44 -71 -53 -104 -34 -120 12 -10
14 -8 10 10 -3 14 6 39 23 63 42 63 56 102 44 125 -14 26 -20 25 -13 0z"/>
<path d="M888 1648 c17 -21 9 -51 -25 -96 -34 -45 -47 -87 -34 -109 9 -16 10
-15 11 7 0 14 16 50 35 80 38 60 44 100 18 121 -16 13 -17 12 -5 -3z"/>
<path d="M1157 1646 c13 -24 4 -50 -37 -107 -33 -47 -39 -89 -13 -110 15 -13
15 -12 4 8 -12 24 -12 25 44 118 29 47 31 77 8 96 -15 13 -15 12 -6 -5z"/>
<path d="M970 1400 c-11 -11 -20 -26 -20 -34 0 -8 -23 -21 -52 -31 -70 -22
-107 -46 -156 -99 -52 -57 -79 -110 -90 -180 l-9 -56 357 0 357 0 -9 57 c-21
136 -121 241 -275 289 -7 2 -13 12 -13 22 0 23 -30 52 -53 52 -9 0 -26 -9 -37
-20z"/>
<path d="M640 940 c0 -20 7 -20 360 -20 353 0 360 0 360 20 0 20 -7 20 -360
20 -353 0 -360 0 -360 -20z"/>
<path d="M685 882 c-5 -4 -10 -42 -10 -85 0 -65 3 -77 17 -77 13 0 15 7 11 38
-6 41 14 69 42 58 18 -7 20 -67 3 -84 -9 -9 -6 -12 17 -12 23 0 26 3 17 12 -7
7 -12 31 -12 55 0 44 -3 47 -47 43 -17 -1 -22 5 -25 29 -2 18 -7 28 -13 23z"/>
<path d="M1712 878 c-6 -6 -12 -20 -12 -29 0 -10 -6 -20 -12 -22 -10 -4 -10
-6 0 -6 16 -1 16 -73 0 -89 -9 -9 -4 -12 22 -12 26 0 31 3 22 12 -19 19 -15
86 6 91 16 4 16 5 0 6 -11 1 -18 9 -18 22 0 18 4 20 26 15 19 -5 25 -3 22 6
-6 18 -40 22 -56 6z"/>
<path d="M280 870 c0 -5 5 -10 10 -10 6 0 10 5 10 10 0 6 -4 10 -10 10 -5 0
-10 -4 -10 -10z"/>
<path d="M138 858 c14 -14 16 -118 2 -118 -5 0 -10 -4 -10 -10 0 -13 51 -13
84 0 27 10 34 38 15 57 -8 8 -8 17 -1 29 19 33 -3 54 -55 54 -37 0 -44 -3 -35
-12z m69 -9 c16 -16 5 -39 -18 -39 -14 0 -19 7 -19 25 0 26 18 33 37 14z m8
-84 c0 -13 -8 -21 -22 -23 -19 -3 -23 1 -23 23 0 22 4 26 23 23 14 -2 22 -10
22 -23z"/>
<path d="M551 844 c-24 -30 -26 -55 -10 -87 21 -40 59 -49 95 -22 17 13 16 14
-18 8 -31 -4 -38 -2 -52 20 -22 32 -12 75 21 90 21 9 27 8 39 -8 15 -21 30
-14 21 10 -11 26 -72 19 -96 -11z"/>
<path d="M1436 852 c-12 -14 -16 -33 -14 -63 4 -51 36 -77 81 -65 37 9 34 27
-3 20 -18 -4 -36 -1 -45 6 -21 17 -19 73 3 93 23 21 31 21 55 0 19 -17 19 -17
16 2 -6 29 -69 33 -93 7z"/>
<path d="M350 846 c0 -8 -6 -17 -12 -19 -10 -4 -10 -6 0 -6 8 -1 12 -17 12
-46 0 -48 20 -69 43 -46 8 8 7 11 -6 11 -25 0 -24 77 1 83 16 4 16 5 0 6 -10
0 -18 8 -18 16 0 8 -4 15 -10 15 -5 0 -10 -6 -10 -14z"/>
<path d="M442 824 c-26 -18 -30 -65 -6 -88 16 -17 33 -20 58 -10 26 10 18 19
-16 19 -23 0 -34 5 -36 18 -3 14 4 17 32 17 29 0 36 4 36 20 0 10 -9 24 -19
30 -25 13 -22 13 -49 -6z m46 -21 c2 -8 -6 -13 -22 -13 -25 0 -33 10 -19 24
10 10 36 3 41 -11z"/>
<path d="M833 833 c-7 -2 -13 -12 -13 -21 0 -13 2 -14 9 -4 11 18 46 11 46 -8
0 -9 -13 -17 -30 -20 -24 -4 -30 -10 -30 -30 0 -23 4 -25 48 -26 26 -1 47 2
47 7 0 5 -4 9 -10 9 -5 0 -10 20 -10 44 0 50 -18 65 -57 49z m45 -75 c-7 -20
-48 -23 -48 -4 0 11 9 16 26 16 16 0 24 -5 22 -12z"/>
<path d="M960 830 c-19 -4 -29 -8 -22 -9 16 -1 16 -73 0 -89 -9 -9 -6 -12 14
-12 24 0 25 2 21 44 -6 45 11 71 28 45 6 -10 9 -8 9 9 0 12 -3 21 -7 21 -5 -1
-24 -5 -43 -9z"/>
<path d="M1081 831 c-7 -5 -23 -7 -35 -5 -11 2 -15 2 -8 -2 15 -7 16 -76 0
-92 -9 -9 -7 -12 13 -12 23 0 24 3 21 45 -3 35 0 46 13 51 31 12 50 -57 23
-84 -9 -9 -6 -12 16 -12 24 0 26 2 17 14 -17 20 -10 67 12 80 14 8 20 8 27 -4
13 -21 12 -64 -2 -78 -9 -9 -6 -12 17 -12 23 0 26 3 17 12 -7 7 -12 31 -12 54
0 45 -18 61 -49 45 -10 -6 -23 -6 -32 0 -17 11 -21 11 -38 0z"/>
<path d="M1578 833 c-10 -2 -18 -12 -18 -21 0 -12 3 -13 12 -4 19 19 48 15 48
-8 0 -14 -7 -20 -24 -20 -13 0 -28 -6 -34 -13 -18 -22 4 -42 46 -43 l39 0 -5
45 c-4 40 -24 73 -41 70 -3 -1 -14 -3 -23 -6z m42 -72 c0 -6 -5 -13 -10 -16
-15 -9 -43 3 -35 15 8 13 45 13 45 1z"/>
<path d="M1792 824 c-30 -21 -31 -79 -1 -94 21 -12 69 -6 69 8 0 4 -15 7 -32
7 -23 0 -34 5 -36 18 -3 14 4 17 32 17 29 0 36 4 36 20 0 10 -9 24 -19 30 -25
13 -22 13 -49 -6z m46 -21 c2 -8 -6 -13 -22 -13 -25 0 -33 10 -19 24 10 10 36
3 41 -11z"/>
<path d="M269 821 c10 -6 12 -22 9 -55 -5 -41 -3 -46 14 -46 14 0 18 5 14 16
-3 9 -6 33 -6 55 0 34 -3 39 -22 39 -17 0 -20 -3 -9 -9z"/>
<path d="M1290 780 c0 -5 11 -10 25 -10 14 0 25 5 25 10 0 6 -11 10 -25 10
-14 0 -25 -4 -25 -10z"/>
<path d="M438 618 c-4 -27 -3 -29 8 -14 12 16 13 16 17 -1 5 -17 5 -17 6 0 0
10 -5 25 -13 32 -12 12 -15 10 -18 -17z"/>
<path d="M830 642 c0 -7 -6 -12 -14 -12 -18 0 -30 -30 -16 -44 7 -7 10 -2 11
15 0 21 1 22 8 4 7 -17 9 -16 15 9 4 16 5 31 1 34 -3 3 -5 0 -5 -6z"/>
<path d="M1045 635 c-3 -8 -7 -22 -10 -30 -2 -8 -1 -15 4 -15 5 0 11 14 13 30
5 32 1 40 -7 15z"/>
<path d="M267 618 c-8 -28 -6 -29 17 -12 11 8 14 14 7 14 -7 0 -9 5 -6 10 3 6
2 10 -3 10 -5 0 -12 -10 -15 -22z"/>
<path d="M877 633 c-13 -12 -7 -38 12 -50 16 -10 20 -9 25 10 8 31 7 47 -2 47
-5 0 -8 -9 -8 -20 1 -10 -3 -18 -9 -17 -5 1 -10 10 -9 20 1 19 0 20 -9 10z"/>
<path d="M1097 633 c-9 -9 -9 -53 1 -53 4 0 7 14 8 30 1 32 1 33 -9 23z"/>
<path d="M1447 626 c-12 -30 -8 -37 13 -24 11 7 20 20 20 28 0 12 -2 13 -9 1
-7 -11 -9 -11 -13 0 -3 9 -6 8 -11 -5z"/>
<path d="M310 608 c0 -12 1 -19 3 -17 1 2 9 12 16 22 12 14 11 17 -3 17 -10 0
-16 -8 -16 -22z"/>
<path d="M347 616 c-3 -8 2 -20 11 -28 10 -8 13 -8 9 -1 -4 6 -3 14 3 18 15 9
12 25 -4 25 -8 0 -16 -6 -19 -14z"/>
<path d="M395 621 c-3 -5 0 -13 6 -17 8 -4 7 -9 -2 -16 -11 -8 -11 -9 1 -5 8
2 16 13 16 25 1 22 -10 29 -21 13z"/>
<path d="M491 608 c1 -17 2 -19 6 -5 2 9 8 17 13 17 5 0 6 -7 3 -17 -4 -11 -3
-14 5 -9 19 12 14 36 -8 36 -14 0 -20 -6 -19 -22z"/>
<path d="M543 614 c-3 -8 -1 -20 5 -26 9 -9 10 -5 7 11 -3 17 0 21 10 17 8 -3
15 -1 15 4 0 16 -30 11 -37 -6z"/>
<path d="M594 606 c0 -13 5 -22 9 -19 5 3 6 11 3 18 -3 8 0 16 7 19 7 2 5 5
-4 5 -12 1 -16 -7 -15 -23z"/>
<path d="M634 606 c0 -14 6 -22 14 -19 9 4 10 9 2 18 -8 9 -7 14 2 18 9 4 8 6
-3 6 -12 1 -16 -7 -15 -23z"/>
<path d="M694 615 c-3 -8 -3 -19 0 -24 10 -16 36 -1 36 20 0 22 -28 26 -36 4z
m18 -17 c-7 -7 -12 -8 -12 -2 0 14 12 26 19 19 2 -3 -1 -11 -7 -17z"/>
<path d="M746 614 c-10 -25 -6 -31 6 -9 11 19 11 19 19 0 7 -19 8 -18 8 3 1
25 -24 30 -33 6z"/>
<path d="M934 615 c-3 -8 -3 -19 0 -24 11 -17 36 0 35 23 0 21 0 21 -9 -1 -12
-28 -24 -30 -15 -3 7 23 -3 28 -11 5z"/>
<path d="M986 613 c-4 -9 -1 -21 5 -27 9 -8 10 -7 6 6 -3 10 -2 20 3 23 5 3
10 -3 12 -12 3 -15 5 -14 10 5 5 17 2 22 -12 22 -10 0 -21 -8 -24 -17z"/>
<path d="M1067 623 c-4 -3 -7 -13 -7 -22 1 -13 3 -13 11 2 11 19 8 33 -4 20z"/>
<path d="M1125 612 c4 -13 1 -31 -5 -40 -7 -9 -1 -4 14 11 14 15 26 33 26 40
0 7 -4 6 -10 -3 -9 -13 -11 -13 -21 0 -8 12 -9 10 -4 -8z"/>
<path d="M1193 615 c-3 -9 -3 -18 -1 -21 3 -3 8 4 11 16 6 23 -1 27 -10 5z"/>
<path d="M1224 606 c0 -13 5 -22 9 -19 5 3 6 11 3 18 -3 8 0 16 7 19 7 2 5 5
-4 5 -12 1 -16 -7 -15 -23z"/>
<path d="M1283 614 c-9 -23 11 -38 26 -20 13 16 7 36 -10 36 -5 0 -12 -7 -16
-16z m27 -3 c0 -6 -4 -13 -10 -16 -5 -3 -10 1 -10 9 0 9 5 16 10 16 6 0 10 -4
10 -9z"/>
<path d="M1330 610 c0 -11 2 -20 4 -20 2 0 6 9 9 20 3 11 1 20 -4 20 -5 0 -9
-9 -9 -20z"/>
<path d="M1357 610 c-3 -11 -1 -20 4 -20 5 0 9 9 9 20 0 11 -2 20 -4 20 -2 0
-6 -9 -9 -20z"/>
<path d="M1386 614 c-9 -24 -2 -26 12 -4 7 11 8 20 3 20 -5 0 -12 -7 -15 -16z"/>
<path d="M1493 615 c-9 -24 1 -27 15 -5 8 13 8 20 2 20 -6 0 -13 -7 -17 -15z"/>
<path d="M1532 610 c0 -14 2 -19 5 -12 2 6 2 18 0 25 -3 6 -5 1 -5 -13z"/>
<path d="M1553 614 c-7 -18 11 -39 26 -30 17 11 13 46 -4 46 -9 0 -18 -7 -22
-16z m27 -10 c0 -8 -5 -12 -10 -9 -6 4 -8 11 -5 16 9 14 15 11 15 -7z"/>
<path d="M1606 614 c-10 -25 1 -29 14 -5 6 12 7 21 1 21 -5 0 -12 -7 -15 -16z"/>
<path d="M1643 615 c-3 -9 -3 -18 -1 -21 3 -3 8 4 11 16 6 23 -1 27 -10 5z"/>
<path d="M1670 605 c0 -14 2 -25 4 -25 2 0 6 11 8 25 3 14 1 25 -3 25 -5 0 -9
-11 -9 -25z"/>
<path d="M1704 611 c3 -14 2 -30 -2 -36 -4 -6 3 1 15 15 25 28 31 49 9 31 -11
-9 -15 -9 -20 1 -3 7 -4 2 -2 -11z"/>
</g>
</svg>
